<svg width="157" height="24" viewBox="0 0 157 24" fill="none" xmlns="http://www.w3.org/2000/svg">
<path d="M19.8284 8.54332H15.844C15.7304 7.88991 15.5209 7.31108 15.2155 6.80682C14.9101 6.29545 14.5301 5.86222 14.0756 5.5071C13.621 5.15199 13.1025 4.88565 12.5202 4.7081C11.9449 4.52344 11.3234 4.43111 10.6558 4.43111C9.46973 4.43111 8.41859 4.7294 7.5024 5.32599C6.5862 5.91548 5.86887 6.78196 5.35041 7.92543C4.83194 9.06179 4.57271 10.4503 4.57271 12.0909C4.57271 13.7599 4.83194 15.1662 5.35041 16.3097C5.87598 17.446 6.59331 18.3054 7.5024 18.8878C8.41859 19.4631 9.46618 19.7507 10.6452 19.7507C11.2986 19.7507 11.9094 19.6655 12.4775 19.495C13.0528 19.3175 13.5677 19.0582 14.0223 18.7173C14.4839 18.3764 14.871 17.9574 15.1835 17.4602C15.5031 16.9631 15.7233 16.3949 15.844 15.7557L19.8284 15.777C19.6792 16.8139 19.3561 17.7869 18.8589 18.696C18.3689 19.6051 17.7261 20.4077 16.9307 21.1037C16.1352 21.7926 15.2048 22.3324 14.1395 22.723C13.0741 23.1065 11.8916 23.2983 10.5919 23.2983C8.67427 23.2983 6.96262 22.8544 5.45694 21.9666C3.95126 21.0788 2.76518 19.7969 1.8987 18.1207C1.03223 16.4446 0.598988 14.4347 0.598988 12.0909C0.598988 9.74006 1.03578 7.73011 1.90936 6.06108C2.78294 4.38494 3.97257 3.10298 5.47825 2.2152C6.98393 1.32741 8.68848 0.883522 10.5919 0.883522C11.8064 0.883522 12.9356 1.05398 13.9797 1.39489C15.0237 1.7358 15.9541 2.23651 16.7709 2.89702C17.5876 3.55043 18.2588 4.35298 18.7844 5.30469C19.317 6.24929 19.665 7.32884 19.8284 8.54332ZM23.2774 23V6.63636H27.134V23H23.2774ZM25.2164 4.31392C24.6056 4.31392 24.08 4.11151 23.6396 3.70668C23.1993 3.29474 22.9791 2.80114 22.9791 2.22585C22.9791 1.64347 23.1993 1.14986 23.6396 0.745027C24.08 0.333096 24.6056 0.12713 25.2164 0.12713C25.8343 0.12713 26.3598 0.333096 26.7931 0.745027C27.2334 1.14986 27.4536 1.64347 27.4536 2.22585C27.4536 2.80114 27.2334 3.29474 26.7931 3.70668C26.3598 4.11151 25.8343 4.31392 25.2164 4.31392ZM34.9562 13.4119V23H31.0997V6.63636H34.7858V9.4169H34.9775C35.354 8.50071 35.9541 7.77273 36.778 7.23295C37.6089 6.69318 38.6352 6.4233 39.8568 6.4233C40.9861 6.4233 41.9697 6.66477 42.8078 7.14773C43.653 7.63068 44.3064 8.33026 44.768 9.24645C45.2368 10.1626 45.4676 11.2741 45.4605 12.581V23H41.604V13.1776C41.604 12.0838 41.3199 11.228 40.7517 10.6101C40.1906 9.99219 39.4129 9.68324 38.4186 9.68324C37.7439 9.68324 37.1437 9.83239 36.6182 10.1307C36.0997 10.4219 35.6913 10.8445 35.393 11.3984C35.1018 11.9524 34.9562 12.6236 34.9562 13.4119ZM56.6253 23.3196C54.9846 23.3196 53.5677 22.9787 52.3746 22.2969C51.1885 21.608 50.2758 20.6349 49.6366 19.3778C48.9974 18.1136 48.6778 16.6257 48.6778 14.9141C48.6778 13.2308 48.9974 11.7536 49.6366 10.4822C50.2829 9.20383 51.1849 8.20952 52.3426 7.49929C53.5003 6.78196 54.8604 6.4233 56.4229 6.4233C57.4314 6.4233 58.3831 6.58665 59.278 6.91335C60.18 7.23295 60.9754 7.73011 61.6643 8.40483C62.3604 9.07955 62.9072 9.93892 63.305 10.983C63.7027 12.0199 63.9015 13.2557 63.9015 14.6903V15.8729H50.4889V13.2734H60.2048C60.1977 12.5348 60.0379 11.8778 59.7254 11.3026C59.4129 10.7202 58.9761 10.2621 58.415 9.92827C57.8611 9.59446 57.2148 9.42756 56.4761 9.42756C55.6878 9.42756 54.9953 9.61932 54.3987 10.0028C53.8021 10.3793 53.3369 10.8764 53.0031 11.4943C52.6764 12.1051 52.5095 12.7763 52.5024 13.5078V15.777C52.5024 16.7287 52.6764 17.5455 53.0244 18.2273C53.3724 18.902 53.8589 19.4205 54.4839 19.7827C55.1089 20.1378 55.8405 20.3153 56.6785 20.3153C57.2396 20.3153 57.7474 20.2372 58.202 20.081C58.6565 19.9176 59.0507 19.6797 59.3845 19.3672C59.7183 19.0547 59.9704 18.6676 60.1409 18.206L63.7417 18.6108C63.5145 19.5625 63.0812 20.3935 62.442 21.1037C61.8099 21.8068 61.0003 22.3537 60.0131 22.7443C59.0258 23.1278 57.8966 23.3196 56.6253 23.3196ZM67.3346 23V1.18182H75.5164C77.1926 1.18182 78.5988 1.49432 79.7352 2.11932C80.8786 2.74432 81.7416 3.60369 82.324 4.69744C82.9134 5.78409 83.2082 7.01989 83.2082 8.40483C83.2082 9.80398 82.9134 11.0469 82.324 12.1335C81.7345 13.2202 80.8644 14.076 79.7139 14.701C78.5633 15.3189 77.1464 15.6278 75.4632 15.6278H70.0406V12.3786H74.9305C75.9106 12.3786 76.7132 12.2081 77.3382 11.8672C77.9632 11.5263 78.4248 11.0575 78.7231 10.4609C79.0285 9.86435 79.1812 9.17898 79.1812 8.40483C79.1812 7.63068 79.0285 6.94886 78.7231 6.35938C78.4248 5.76989 77.9596 5.31179 77.3275 4.98508C76.7025 4.65128 75.8964 4.48438 74.9092 4.48438H71.287V23H67.3346ZM90.3273 1.18182V23H86.4708V1.18182H90.3273ZM99.0019 23.3303C97.9649 23.3303 97.031 23.1456 96.2 22.7763C95.3762 22.3999 94.7227 21.8459 94.2398 21.1143C93.7639 20.3828 93.526 19.4808 93.526 18.4084C93.526 17.4851 93.6965 16.7216 94.0374 16.1179C94.3783 15.5142 94.8435 15.0312 95.433 14.669C96.0225 14.3068 96.6865 14.0334 97.4252 13.8487C98.1709 13.657 98.9415 13.5185 99.7369 13.4332C100.696 13.3338 101.473 13.245 102.07 13.1669C102.667 13.0817 103.1 12.9538 103.37 12.7834C103.647 12.6058 103.785 12.3324 103.785 11.9631V11.8991C103.785 11.0966 103.547 10.4751 103.071 10.0348C102.596 9.59446 101.91 9.37429 101.015 9.37429C100.071 9.37429 99.3215 9.58026 98.7675 9.99219C98.2206 10.4041 97.8513 10.8906 97.6595 11.4517L94.0587 10.9403C94.3428 9.94602 94.8115 9.11506 95.4649 8.44744C96.1183 7.77273 96.9173 7.26847 97.8619 6.93466C98.8066 6.59375 99.8506 6.4233 100.994 6.4233C101.782 6.4233 102.567 6.51563 103.348 6.70028C104.13 6.88494 104.843 7.19034 105.49 7.61648C106.136 8.03551 106.655 8.60724 107.045 9.33168C107.443 10.0561 107.642 10.9616 107.642 12.0483V23H103.934V20.7521H103.807C103.572 21.2067 103.242 21.6328 102.816 22.0305C102.397 22.4212 101.868 22.7372 101.228 22.9787C100.596 23.2131 99.8541 23.3303 99.0019 23.3303ZM100.003 20.4964C100.777 20.4964 101.449 20.3437 102.017 20.0384C102.585 19.7259 103.022 19.3139 103.327 18.8026C103.64 18.2912 103.796 17.7337 103.796 17.13V15.2017C103.675 15.3011 103.469 15.3935 103.178 15.4787C102.894 15.5639 102.574 15.6385 102.219 15.7024C101.864 15.7663 101.513 15.8232 101.165 15.8729C100.816 15.9226 100.515 15.9652 100.259 16.0007C99.6837 16.0788 99.1688 16.2067 98.7142 16.3842C98.2597 16.5618 97.901 16.8104 97.6382 17.13C97.3754 17.4425 97.2441 17.8473 97.2441 18.3445C97.2441 19.0547 97.5033 19.5909 98.0218 19.9531C98.5402 20.3153 99.2007 20.4964 100.003 20.4964ZM115.376 13.4119V23H111.52V6.63636H115.206V9.4169H115.397C115.774 8.50071 116.374 7.77273 117.198 7.23295C118.029 6.69318 119.055 6.4233 120.277 6.4233C121.406 6.4233 122.39 6.66477 123.228 7.14773C124.073 7.63068 124.726 8.33026 125.188 9.24645C125.657 10.1626 125.888 11.2741 125.88 12.581V23H122.024V13.1776C122.024 12.0838 121.74 11.228 121.172 10.6101C120.611 9.99219 119.833 9.68324 118.839 9.68324C118.164 9.68324 117.564 9.83239 117.038 10.1307C116.52 10.4219 116.111 10.8445 115.813 11.3984C115.522 11.9524 115.376 12.6236 115.376 13.4119ZM137.045 23.3196C135.405 23.3196 133.988 22.9787 132.794 22.2969C131.608 21.608 130.696 20.6349 130.057 19.3778C129.417 18.1136 129.098 16.6257 129.098 14.9141C129.098 13.2308 129.417 11.7536 130.057 10.4822C130.703 9.20383 131.605 8.20952 132.763 7.49929C133.92 6.78196 135.28 6.4233 136.843 6.4233C137.851 6.4233 138.803 6.58665 139.698 6.91335C140.6 7.23295 141.395 7.73011 142.084 8.40483C142.78 9.07955 143.327 9.93892 143.725 10.983C144.123 12.0199 144.321 13.2557 144.321 14.6903V15.8729H130.909V13.2734H140.625C140.618 12.5348 140.458 11.8778 140.145 11.3026C139.833 10.7202 139.396 10.2621 138.835 9.92827C138.281 9.59446 137.635 9.42756 136.896 9.42756C136.108 9.42756 135.415 9.61932 134.819 10.0028C134.222 10.3793 133.757 10.8764 133.423 11.4943C133.096 12.1051 132.929 12.7763 132.922 13.5078V15.777C132.922 16.7287 133.096 17.5455 133.444 18.2273C133.792 18.902 134.279 19.4205 134.904 19.7827C135.529 20.1378 136.26 20.3153 137.098 20.3153C137.66 20.3153 138.167 20.2372 138.622 20.081C139.076 19.9176 139.471 19.6797 139.804 19.3672C140.138 19.0547 140.39 18.6676 140.561 18.206L144.162 18.6108C143.934 19.5625 143.501 20.3935 142.862 21.1037C142.23 21.8068 141.42 22.3537 140.433 22.7443C139.446 23.1278 138.316 23.3196 137.045 23.3196ZM155.755 6.63636V9.61932H146.348V6.63636H155.755ZM148.671 2.71591H152.527V18.0781C152.527 18.5966 152.605 18.9943 152.762 19.2713C152.925 19.5412 153.138 19.7259 153.401 19.8253C153.664 19.9247 153.955 19.9744 154.274 19.9744C154.516 19.9744 154.736 19.9567 154.935 19.9212C155.141 19.8857 155.297 19.8537 155.404 19.8253L156.054 22.8402C155.848 22.9112 155.553 22.9893 155.169 23.0746C154.793 23.1598 154.331 23.2095 153.784 23.2237C152.818 23.2521 151.948 23.1065 151.174 22.7869C150.4 22.4602 149.786 21.956 149.331 21.2741C148.884 20.5923 148.664 19.7401 148.671 18.7173V2.71591Z" fill="url(#paint0_linear_1_2745)" fill-opacity="0.8"/>
<defs>
<linearGradient id="paint0_linear_1_2745" x1="-1" y1="22" x2="33.1691" y2="-53.8118" gradientUnits="userSpaceOnUse">
<stop stop-color="#BBF7D0"/>
<stop offset="0.421873" stop-color="#7DD3FC"/>
<stop offset="0.82813" stop-color="#C084FC"/>
</linearGradient>
</defs>
</svg>
