<svg width="201" height="31" viewBox="0 0 201 31" fill="none" xmlns="http://www.w3.org/2000/svg">
<path d="M63.8284 8.54332H59.844C59.7304 7.88991 59.5209 7.31108 59.2155 6.80682C58.9101 6.29545 58.5301 5.86222 58.0756 5.5071C57.621 5.15199 57.1025 4.88565 56.5202 4.7081C55.9449 4.52344 55.3234 4.43111 54.6558 4.43111C53.4697 4.43111 52.4186 4.7294 51.5024 5.32599C50.5862 5.91548 49.8689 6.78196 49.3504 7.92543C48.8319 9.06179 48.5727 10.4503 48.5727 12.0909C48.5727 13.7599 48.8319 15.1662 49.3504 16.3097C49.876 17.446 50.5933 18.3054 51.5024 18.8878C52.4186 19.4631 53.4662 19.7507 54.6452 19.7507C55.2986 19.7507 55.9094 19.6655 56.4775 19.495C57.0528 19.3175 57.5677 19.0582 58.0223 18.7173C58.4839 18.3764 58.871 17.9574 59.1835 17.4602C59.5031 16.9631 59.7233 16.3949 59.844 15.7557L63.8284 15.777C63.6792 16.8139 63.3561 17.7869 62.8589 18.696C62.3689 19.6051 61.7261 20.4077 60.9307 21.1037C60.1352 21.7926 59.2048 22.3324 58.1395 22.723C57.0741 23.1065 55.8916 23.2983 54.5919 23.2983C52.6743 23.2983 50.9626 22.8544 49.4569 21.9666C47.9513 21.0788 46.7652 19.7969 45.8987 18.1207C45.0322 16.4446 44.599 14.4347 44.599 12.0909C44.599 9.74006 45.0358 7.73011 45.9094 6.06108C46.7829 4.38494 47.9726 3.10298 49.4782 2.2152C50.9839 1.32741 52.6885 0.883522 54.5919 0.883522C55.8064 0.883522 56.9356 1.05398 57.9797 1.39489C59.0237 1.7358 59.9541 2.23651 60.7709 2.89702C61.5876 3.55043 62.2588 4.35298 62.7844 5.30469C63.317 6.24929 63.665 7.32884 63.8284 8.54332ZM67.2774 23V6.63636H71.134V23H67.2774ZM69.2164 4.31392C68.6056 4.31392 68.08 4.11151 67.6396 3.70668C67.1993 3.29474 66.9791 2.80114 66.9791 2.22585C66.9791 1.64347 67.1993 1.14986 67.6396 0.745027C68.08 0.333096 68.6056 0.12713 69.2164 0.12713C69.8343 0.12713 70.3598 0.333096 70.7931 0.745027C71.2334 1.14986 71.4536 1.64347 71.4536 2.22585C71.4536 2.80114 71.2334 3.29474 70.7931 3.70668C70.3598 4.11151 69.8343 4.31392 69.2164 4.31392ZM78.9562 13.4119V23H75.0997V6.63636H78.7858V9.4169H78.9775C79.354 8.50071 79.9541 7.77273 80.778 7.23295C81.6089 6.69318 82.6352 6.4233 83.8568 6.4233C84.9861 6.4233 85.9697 6.66477 86.8078 7.14773C87.653 7.63068 88.3064 8.33026 88.768 9.24645C89.2368 10.1626 89.4676 11.2741 89.4605 12.581V23H85.604V13.1776C85.604 12.0838 85.3199 11.228 84.7517 10.6101C84.1906 9.99219 83.4129 9.68324 82.4186 9.68324C81.7439 9.68324 81.1437 9.83239 80.6182 10.1307C80.0997 10.4219 79.6913 10.8445 79.393 11.3984C79.1018 11.9524 78.9562 12.6236 78.9562 13.4119ZM100.625 23.3196C98.9846 23.3196 97.5677 22.9787 96.3746 22.2969C95.1885 21.608 94.2758 20.6349 93.6366 19.3778C92.9974 18.1136 92.6778 16.6257 92.6778 14.9141C92.6778 13.2308 92.9974 11.7536 93.6366 10.4822C94.2829 9.20383 95.1849 8.20952 96.3426 7.49929C97.5003 6.78196 98.8604 6.4233 100.423 6.4233C101.431 6.4233 102.383 6.58665 103.278 6.91335C104.18 7.23295 104.975 7.73011 105.664 8.40483C106.36 9.07955 106.907 9.93892 107.305 10.983C107.703 12.0199 107.902 13.2557 107.902 14.6903V15.8729H94.4889V13.2734H104.205C104.198 12.5348 104.038 11.8778 103.725 11.3026C103.413 10.7202 102.976 10.2621 102.415 9.92827C101.861 9.59446 101.215 9.42756 100.476 9.42756C99.6878 9.42756 98.9953 9.61932 98.3987 10.0028C97.8021 10.3793 97.3369 10.8764 97.0031 11.4943C96.6764 12.1051 96.5095 12.7763 96.5024 13.5078V15.777C96.5024 16.7287 96.6764 17.5455 97.0244 18.2273C97.3724 18.902 97.8589 19.4205 98.4839 19.7827C99.1089 20.1378 99.8405 20.3153 100.679 20.3153C101.24 20.3153 101.747 20.2372 102.202 20.081C102.657 19.9176 103.051 19.6797 103.384 19.3672C103.718 19.0547 103.97 18.6676 104.141 18.206L107.742 18.6108C107.514 19.5625 107.081 20.3935 106.442 21.1037C105.81 21.8068 105 22.3537 104.013 22.7443C103.026 23.1278 101.897 23.3196 100.625 23.3196ZM111.335 23V1.18182H119.516C121.193 1.18182 122.599 1.49432 123.735 2.11932C124.879 2.74432 125.742 3.60369 126.324 4.69744C126.913 5.78409 127.208 7.01989 127.208 8.40483C127.208 9.80398 126.913 11.0469 126.324 12.1335C125.734 13.2202 124.864 14.076 123.714 14.701C122.563 15.3189 121.146 15.6278 119.463 15.6278H114.041V12.3786H118.93C119.911 12.3786 120.713 12.2081 121.338 11.8672C121.963 11.5263 122.425 11.0575 122.723 10.4609C123.028 9.86435 123.181 9.17898 123.181 8.40483C123.181 7.63068 123.028 6.94886 122.723 6.35938C122.425 5.76989 121.96 5.31179 121.328 4.98508C120.703 4.65128 119.896 4.48438 118.909 4.48438H115.287V23H111.335ZM134.327 1.18182V23H130.471V1.18182H134.327ZM143.002 23.3303C141.965 23.3303 141.031 23.1456 140.2 22.7763C139.376 22.3999 138.723 21.8459 138.24 21.1143C137.764 20.3828 137.526 19.4808 137.526 18.4084C137.526 17.4851 137.696 16.7216 138.037 16.1179C138.378 15.5142 138.843 15.0312 139.433 14.669C140.022 14.3068 140.687 14.0334 141.425 13.8487C142.171 13.657 142.941 13.5185 143.737 13.4332C144.696 13.3338 145.473 13.245 146.07 13.1669C146.667 13.0817 147.1 12.9538 147.37 12.7834C147.647 12.6058 147.785 12.3324 147.785 11.9631V11.8991C147.785 11.0966 147.547 10.4751 147.071 10.0348C146.596 9.59446 145.91 9.37429 145.015 9.37429C144.071 9.37429 143.321 9.58026 142.767 9.99219C142.221 10.4041 141.851 10.8906 141.66 11.4517L138.059 10.9403C138.343 9.94602 138.812 9.11506 139.465 8.44744C140.118 7.77273 140.917 7.26847 141.862 6.93466C142.807 6.59375 143.851 6.4233 144.994 6.4233C145.782 6.4233 146.567 6.51563 147.348 6.70028C148.13 6.88494 148.843 7.19034 149.49 7.61648C150.136 8.03551 150.655 8.60724 151.045 9.33168C151.443 10.0561 151.642 10.9616 151.642 12.0483V23H147.934V20.7521H147.807C147.572 21.2067 147.242 21.6328 146.816 22.0305C146.397 22.4212 145.868 22.7372 145.228 22.9787C144.596 23.2131 143.854 23.3303 143.002 23.3303ZM144.003 20.4964C144.777 20.4964 145.449 20.3437 146.017 20.0384C146.585 19.7259 147.022 19.3139 147.327 18.8026C147.64 18.2912 147.796 17.7337 147.796 17.13V15.2017C147.675 15.3011 147.469 15.3935 147.178 15.4787C146.894 15.5639 146.574 15.6385 146.219 15.7024C145.864 15.7663 145.513 15.8232 145.165 15.8729C144.816 15.9226 144.515 15.9652 144.259 16.0007C143.684 16.0788 143.169 16.2067 142.714 16.3842C142.26 16.5618 141.901 16.8104 141.638 17.13C141.375 17.4425 141.244 17.8473 141.244 18.3445C141.244 19.0547 141.503 19.5909 142.022 19.9531C142.54 20.3153 143.201 20.4964 144.003 20.4964ZM159.376 13.4119V23H155.52V6.63636H159.206V9.4169H159.397C159.774 8.50071 160.374 7.77273 161.198 7.23295C162.029 6.69318 163.055 6.4233 164.277 6.4233C165.406 6.4233 166.39 6.66477 167.228 7.14773C168.073 7.63068 168.726 8.33026 169.188 9.24645C169.657 10.1626 169.888 11.2741 169.88 12.581V23H166.024V13.1776C166.024 12.0838 165.74 11.228 165.172 10.6101C164.611 9.99219 163.833 9.68324 162.839 9.68324C162.164 9.68324 161.564 9.83239 161.038 10.1307C160.52 10.4219 160.111 10.8445 159.813 11.3984C159.522 11.9524 159.376 12.6236 159.376 13.4119ZM181.045 23.3196C179.405 23.3196 177.988 22.9787 176.794 22.2969C175.608 21.608 174.696 20.6349 174.057 19.3778C173.417 18.1136 173.098 16.6257 173.098 14.9141C173.098 13.2308 173.417 11.7536 174.057 10.4822C174.703 9.20383 175.605 8.20952 176.763 7.49929C177.92 6.78196 179.28 6.4233 180.843 6.4233C181.851 6.4233 182.803 6.58665 183.698 6.91335C184.6 7.23295 185.395 7.73011 186.084 8.40483C186.78 9.07955 187.327 9.93892 187.725 10.983C188.123 12.0199 188.321 13.2557 188.321 14.6903V15.8729H174.909V13.2734H184.625C184.618 12.5348 184.458 11.8778 184.145 11.3026C183.833 10.7202 183.396 10.2621 182.835 9.92827C182.281 9.59446 181.635 9.42756 180.896 9.42756C180.108 9.42756 179.415 9.61932 178.819 10.0028C178.222 10.3793 177.757 10.8764 177.423 11.4943C177.096 12.1051 176.929 12.7763 176.922 13.5078V15.777C176.922 16.7287 177.096 17.5455 177.444 18.2273C177.792 18.902 178.279 19.4205 178.904 19.7827C179.529 20.1378 180.26 20.3153 181.098 20.3153C181.66 20.3153 182.167 20.2372 182.622 20.081C183.076 19.9176 183.471 19.6797 183.804 19.3672C184.138 19.0547 184.39 18.6676 184.561 18.206L188.162 18.6108C187.934 19.5625 187.501 20.3935 186.862 21.1037C186.23 21.8068 185.42 22.3537 184.433 22.7443C183.446 23.1278 182.316 23.3196 181.045 23.3196ZM199.755 6.63636V9.61932H190.348V6.63636H199.755ZM192.671 2.71591H196.527V18.0781C196.527 18.5966 196.605 18.9943 196.762 19.2713C196.925 19.5412 197.138 19.7259 197.401 19.8253C197.664 19.9247 197.955 19.9744 198.274 19.9744C198.516 19.9744 198.736 19.9567 198.935 19.9212C199.141 19.8857 199.297 19.8537 199.404 19.8253L200.054 22.8402C199.848 22.9112 199.553 22.9893 199.169 23.0746C198.793 23.1598 198.331 23.2095 197.784 23.2237C196.818 23.2521 195.948 23.1065 195.174 22.7869C194.4 22.4602 193.786 21.956 193.331 21.2741C192.884 20.5923 192.664 19.7401 192.671 18.7173V2.71591Z" fill="url(#paint0_linear_1_3012)"/>
<g filter="url(#filter0_d_1_3012)">
<path d="M10.7132 11.5C7.11836 13.974 4.67705 16.777 5.17615 17.8812C6.00125 19.7066 13.9774 17.7284 22.9914 13.4626C32.0054 9.19686 38.6438 4.25895 37.8187 2.43349C37.2708 1.22147 34.0068 1.68014 28.6956 3.45M10.7132 11.5C11.0542 11.2653 10.3429 11.7398 10.7132 11.5Z" stroke="url(#paint1_linear_1_3012)" stroke-opacity="0.8" shape-rendering="crispEdges"/>
</g>
<g filter="url(#filter1_d_1_3012)">
<ellipse cx="21.4938" cy="11.5" rx="11.2389" ry="11.5" fill="url(#paint2_linear_1_3012)" fill-opacity="0.8" shape-rendering="crispEdges"/>
</g>
<mask id="mask0_1_3012" style="mask-type:alpha" maskUnits="userSpaceOnUse" x="10" y="0" width="23" height="23">
<path d="M32.2328 11.5C32.2328 5.41398 27.414 0.5 21.4938 0.5C15.5736 0.5 10.7549 5.41398 10.7549 11.5C10.7549 17.586 15.5736 22.5 21.4938 22.5C27.414 22.5 32.2328 17.586 32.2328 11.5Z" fill="url(#paint3_linear_1_3012)" fill-opacity="0.8" stroke="black"/>
</mask>
<g mask="url(#mask0_1_3012)">
<path d="M30.0687 14.1833C30.0687 20.2694 25.25 25.1833 19.3298 25.1833C13.4096 25.1833 8.59082 20.2694 8.59082 14.1833C8.59082 8.09733 13.4096 3.18335 19.3298 3.18335C25.25 3.18335 30.0687 8.09733 30.0687 14.1833Z" fill="white" stroke="white"/>
<path d="M23.0753 7.71939C24.282 7.71939 25.2485 6.72043 25.2485 5.50273C25.2485 4.28503 24.282 3.28606 23.0753 3.28606C21.8686 3.28606 20.9021 4.28503 20.9021 5.50273C20.9021 6.72043 21.8686 7.71939 23.0753 7.71939Z" stroke="url(#paint4_linear_1_3012)" stroke-opacity="0.8" stroke-width="0.6"/>
<path d="M19.4546 4.73609C19.4546 5.02688 19.2257 5.25275 18.9553 5.25275C18.685 5.25275 18.4561 5.02688 18.4561 4.73609C18.4561 4.4453 18.685 4.21942 18.9553 4.21942C19.2257 4.21942 19.4546 4.4453 19.4546 4.73609Z" stroke="url(#paint5_linear_1_3012)" stroke-opacity="0.8" stroke-width="0.5"/>
<path d="M27.1969 7.14997C27.5473 7.14997 27.8215 6.86097 27.8215 6.51663C27.8215 6.1723 27.5473 5.8833 27.1969 5.8833C26.8465 5.8833 26.5723 6.1723 26.5723 6.51663C26.5723 6.86097 26.8465 7.14997 27.1969 7.14997Z" stroke="url(#paint6_linear_1_3012)" stroke-opacity="0.8" stroke-width="0.5"/>
<g filter="url(#filter2_d_1_3012)">
<path d="M9.21454 18.7834C9.28946 18.7627 9.21459 18.6756 9.21471 18.4026C12.9934 17.6096 17.7827 15.9024 22.6663 13.5618C26.5466 11.7021 30.0614 9.73696 32.9318 7.87694C33.0075 7.82787 33.0828 7.77887 33.1576 7.72995" stroke="url(#paint7_linear_1_3012)" stroke-opacity="0.8" shape-rendering="crispEdges"/>
</g>
<path d="M26.4743 12.9593C26.4743 13.3661 26.1433 13.6972 25.7335 13.6972C25.3236 13.6972 24.9927 13.3661 24.9927 12.9593C24.9927 12.5525 25.3236 12.2214 25.7335 12.2214C26.1433 12.2214 26.4743 12.5525 26.4743 12.9593Z" stroke="url(#paint8_linear_1_3012)" stroke-opacity="0.8" stroke-width="0.5"/>
</g>
<defs>
<filter id="filter0_d_1_3012" x="0.611328" y="1.25562" width="41.7764" height="25.8054" filterUnits="userSpaceOnUse" color-interpolation-filters="sRGB">
<feFlood flood-opacity="0" result="BackgroundImageFix"/>
<feColorMatrix in="SourceAlpha" type="matrix" values="0 0 0 0 0 0 0 0 0 0 0 0 0 0 0 0 0 0 127 0" result="hardAlpha"/>
<feOffset dy="4"/>
<feGaussianBlur stdDeviation="2"/>
<feComposite in2="hardAlpha" operator="out"/>
<feColorMatrix type="matrix" values="0 0 0 0 0 0 0 0 0 0 0 0 0 0 0 0 0 0 0.25 0"/>
<feBlend mode="normal" in2="BackgroundImageFix" result="effect1_dropShadow_1_3012"/>
<feBlend mode="normal" in="SourceGraphic" in2="effect1_dropShadow_1_3012" result="shape"/>
</filter>
<filter id="filter1_d_1_3012" x="6.25488" y="0" width="30.478" height="31" filterUnits="userSpaceOnUse" color-interpolation-filters="sRGB">
<feFlood flood-opacity="0" result="BackgroundImageFix"/>
<feColorMatrix in="SourceAlpha" type="matrix" values="0 0 0 0 0 0 0 0 0 0 0 0 0 0 0 0 0 0 127 0" result="hardAlpha"/>
<feOffset dy="4"/>
<feGaussianBlur stdDeviation="2"/>
<feComposite in2="hardAlpha" operator="out"/>
<feColorMatrix type="matrix" values="0 0 0 0 0 0 0 0 0 0 0 0 0 0 0 0 0 0 0.25 0"/>
<feBlend mode="normal" in2="BackgroundImageFix" result="effect1_dropShadow_1_3012"/>
<feBlend mode="normal" in="SourceGraphic" in2="effect1_dropShadow_1_3012" result="shape"/>
</filter>
<filter id="filter2_d_1_3012" x="4.71484" y="7.31152" width="32.7148" height="19.954" filterUnits="userSpaceOnUse" color-interpolation-filters="sRGB">
<feFlood flood-opacity="0" result="BackgroundImageFix"/>
<feColorMatrix in="SourceAlpha" type="matrix" values="0 0 0 0 0 0 0 0 0 0 0 0 0 0 0 0 0 0 127 0" result="hardAlpha"/>
<feOffset dy="4"/>
<feGaussianBlur stdDeviation="2"/>
<feComposite in2="hardAlpha" operator="out"/>
<feColorMatrix type="matrix" values="0 0 0 0 0 0 0 0 0 0 0 0 0 0 0 0 0 0 0.25 0"/>
<feBlend mode="normal" in2="BackgroundImageFix" result="effect1_dropShadow_1_3012"/>
<feBlend mode="normal" in="SourceGraphic" in2="effect1_dropShadow_1_3012" result="shape"/>
</filter>
<linearGradient id="paint0_linear_1_3012" x1="43" y1="22" x2="77.1691" y2="-53.8118" gradientUnits="userSpaceOnUse">
<stop stop-color="#BBF7D0"/>
<stop offset="0.421873" stop-color="#7DD3FC"/>
<stop offset="0.82813" stop-color="#C084FC"/>
</linearGradient>
<linearGradient id="paint1_linear_1_3012" x1="5.21104" y1="18.7615" x2="33.3971" y2="-3.89166" gradientUnits="userSpaceOnUse">
<stop stop-color="#BBF7D0"/>
<stop offset="0.421873" stop-color="#7DD3FC"/>
<stop offset="0.82813" stop-color="#C084FC"/>
</linearGradient>
<linearGradient id="paint2_linear_1_3012" x1="10.2549" y1="23" x2="37.0287" y2="15.6513" gradientUnits="userSpaceOnUse">
<stop stop-color="#BBF7D0"/>
<stop offset="0.421873" stop-color="#7DD3FC"/>
<stop offset="0.82813" stop-color="#C084FC"/>
</linearGradient>
<linearGradient id="paint3_linear_1_3012" x1="10.2549" y1="0" x2="37.0287" y2="7.34875" gradientUnits="userSpaceOnUse">
<stop stop-color="#BBF7D0"/>
<stop offset="0.421873" stop-color="#7DD3FC"/>
<stop offset="0.82813" stop-color="#C084FC"/>
</linearGradient>
<linearGradient id="paint4_linear_1_3012" x1="21.2021" y1="7.41939" x2="25.6644" y2="6.1946" gradientUnits="userSpaceOnUse">
<stop stop-color="#BBF7D0"/>
<stop offset="0.421873" stop-color="#7DD3FC"/>
<stop offset="0.82813" stop-color="#C084FC"/>
</linearGradient>
<linearGradient id="paint5_linear_1_3012" x1="18.2061" y1="5.50275" x2="19.991" y2="5.01284" gradientUnits="userSpaceOnUse">
<stop stop-color="#BBF7D0"/>
<stop offset="0.421873" stop-color="#7DD3FC"/>
<stop offset="0.82813" stop-color="#C084FC"/>
</linearGradient>
<linearGradient id="paint6_linear_1_3012" x1="26.8223" y1="6.89997" x2="27.7147" y2="6.65501" gradientUnits="userSpaceOnUse">
<stop stop-color="#BBF7D0"/>
<stop offset="0.421873" stop-color="#7DD3FC"/>
<stop offset="0.82813" stop-color="#C084FC"/>
</linearGradient>
<linearGradient id="paint7_linear_1_3012" x1="9.21454" y1="18.7834" x2="27.4949" y2="1.6782" gradientUnits="userSpaceOnUse">
<stop stop-color="#BBF7D0"/>
<stop offset="0.421873" stop-color="#7DD3FC"/>
<stop offset="0.82813" stop-color="#C084FC"/>
</linearGradient>
<linearGradient id="paint8_linear_1_3012" x1="24.7427" y1="13.9472" x2="27.0942" y2="13.2848" gradientUnits="userSpaceOnUse">
<stop stop-color="#BBF7D0"/>
<stop offset="0.421873" stop-color="#7DD3FC"/>
<stop offset="0.82813" stop-color="#C084FC"/>
</linearGradient>
</defs>
</svg>
