<svg width="76" height="54" viewBox="0 0 76 54" fill="none" xmlns="http://www.w3.org/2000/svg">
<g filter="url(#filter0_d_1_2710)">
<path d="M16.4264 22.9999C9.23672 27.9479 4.3541 33.5539 5.35231 35.7624C7.00251 39.4133 22.9548 35.4568 40.9828 26.9252C59.0107 18.3937 72.2875 8.5179 70.6373 4.86698C69.5417 2.44294 63.0135 3.36027 52.3912 6.89999M16.4264 22.9999C17.1084 22.5306 15.6857 23.4795 16.4264 22.9999Z" stroke="url(#paint0_linear_1_2710)" stroke-opacity="0.8" shape-rendering="crispEdges"/>
</g>
<g filter="url(#filter1_d_1_2710)">
<ellipse cx="37.9876" cy="23" rx="22.4779" ry="23" fill="url(#paint1_linear_1_2710)" fill-opacity="0.8" shape-rendering="crispEdges"/>
</g>
<mask id="mask0_1_2710" style="mask-type:alpha" maskUnits="userSpaceOnUse" x="15" y="0" width="46" height="46">
<path d="M59.9655 23C59.9655 10.5627 50.1149 0.5 37.9876 0.5C25.8604 0.5 16.0098 10.5627 16.0098 23C16.0098 35.4373 25.8604 45.5 37.9876 45.5C50.1149 45.5 59.9655 35.4373 59.9655 23Z" fill="url(#paint2_linear_1_2710)" fill-opacity="0.8" stroke="black"/>
</mask>
<g mask="url(#mask0_1_2710)">
<path d="M55.6374 28.3667C55.6374 40.804 45.7868 50.8667 33.6595 50.8667C21.5322 50.8667 11.6816 40.804 11.6816 28.3667C11.6816 15.9294 21.5322 5.8667 33.6595 5.8667C45.7868 5.8667 55.6374 15.9294 55.6374 28.3667Z" fill="white" stroke="white"/>
<path d="M41.1506 15.1388C43.3918 15.1388 45.1969 13.2817 45.1969 11.0055C45.1969 8.72921 43.3918 6.87212 41.1506 6.87212C38.9094 6.87212 37.1043 8.72921 37.1043 11.0055C37.1043 13.2817 38.9094 15.1388 41.1506 15.1388Z" stroke="url(#paint3_linear_1_2710)" stroke-opacity="0.8" stroke-width="0.6"/>
<path d="M34.1592 9.4723C34.1592 10.1865 33.5948 10.7556 32.9106 10.7556C32.2265 10.7556 31.6621 10.1865 31.6621 9.4723C31.6621 8.75809 32.2265 8.18896 32.9106 8.18896C33.5948 8.18896 34.1592 8.75809 34.1592 9.4723Z" stroke="url(#paint4_linear_1_2710)" stroke-opacity="0.8" stroke-width="0.5"/>
<path d="M49.3938 14.0501C49.9511 14.0501 50.3931 13.5894 50.3931 13.0334C50.3931 12.4773 49.9511 12.0167 49.3938 12.0167C48.8365 12.0167 48.3945 12.4773 48.3945 13.0334C48.3945 13.5894 48.8365 14.0501 49.3938 14.0501Z" stroke="url(#paint5_linear_1_2710)" stroke-opacity="0.8" stroke-width="0.5"/>
<g filter="url(#filter2_d_1_2710)">
<path d="M13.4291 37.5668C13.5789 37.5255 13.4292 37.3511 13.4294 36.8052C20.9867 35.2193 30.5654 31.8047 40.3326 27.1236C48.0931 23.4041 55.1228 19.4739 60.8636 15.7539C61.0151 15.6557 61.1656 15.5577 61.3153 15.4599" stroke="url(#paint6_linear_1_2710)" stroke-opacity="0.8" shape-rendering="crispEdges"/>
</g>
<path d="M48.1986 25.9186C48.1986 26.871 47.424 27.6444 46.467 27.6444C45.5099 27.6444 44.7354 26.871 44.7354 25.9186C44.7354 24.9662 45.5099 24.1929 46.467 24.1929C47.424 24.1929 48.1986 24.9662 48.1986 25.9186Z" stroke="url(#paint7_linear_1_2710)" stroke-opacity="0.8" stroke-width="0.5"/>
</g>
<defs>
<filter id="filter0_d_1_2710" x="0.7229" y="3.01135" width="74.553" height="42.6105" filterUnits="userSpaceOnUse" color-interpolation-filters="sRGB">
<feFlood flood-opacity="0" result="BackgroundImageFix"/>
<feColorMatrix in="SourceAlpha" type="matrix" values="0 0 0 0 0 0 0 0 0 0 0 0 0 0 0 0 0 0 127 0" result="hardAlpha"/>
<feOffset dy="4"/>
<feGaussianBlur stdDeviation="2"/>
<feComposite in2="hardAlpha" operator="out"/>
<feColorMatrix type="matrix" values="0 0 0 0 0 0 0 0 0 0 0 0 0 0 0 0 0 0 0.25 0"/>
<feBlend mode="normal" in2="BackgroundImageFix" result="effect1_dropShadow_1_2710"/>
<feBlend mode="normal" in="SourceGraphic" in2="effect1_dropShadow_1_2710" result="shape"/>
</filter>
<filter id="filter1_d_1_2710" x="11.5098" y="0" width="52.9558" height="54" filterUnits="userSpaceOnUse" color-interpolation-filters="sRGB">
<feFlood flood-opacity="0" result="BackgroundImageFix"/>
<feColorMatrix in="SourceAlpha" type="matrix" values="0 0 0 0 0 0 0 0 0 0 0 0 0 0 0 0 0 0 127 0" result="hardAlpha"/>
<feOffset dy="4"/>
<feGaussianBlur stdDeviation="2"/>
<feComposite in2="hardAlpha" operator="out"/>
<feColorMatrix type="matrix" values="0 0 0 0 0 0 0 0 0 0 0 0 0 0 0 0 0 0 0.25 0"/>
<feBlend mode="normal" in2="BackgroundImageFix" result="effect1_dropShadow_1_2710"/>
<feBlend mode="normal" in="SourceGraphic" in2="effect1_dropShadow_1_2710" result="shape"/>
</filter>
<filter id="filter2_d_1_2710" x="8.92969" y="15.0415" width="56.6577" height="31.0074" filterUnits="userSpaceOnUse" color-interpolation-filters="sRGB">
<feFlood flood-opacity="0" result="BackgroundImageFix"/>
<feColorMatrix in="SourceAlpha" type="matrix" values="0 0 0 0 0 0 0 0 0 0 0 0 0 0 0 0 0 0 127 0" result="hardAlpha"/>
<feOffset dy="4"/>
<feGaussianBlur stdDeviation="2"/>
<feComposite in2="hardAlpha" operator="out"/>
<feColorMatrix type="matrix" values="0 0 0 0 0 0 0 0 0 0 0 0 0 0 0 0 0 0 0.25 0"/>
<feBlend mode="normal" in2="BackgroundImageFix" result="effect1_dropShadow_1_2710"/>
<feBlend mode="normal" in="SourceGraphic" in2="effect1_dropShadow_1_2710" result="shape"/>
</filter>
<linearGradient id="paint0_linear_1_2710" x1="5.42209" y1="37.523" x2="61.7943" y2="-7.78333" gradientUnits="userSpaceOnUse">
<stop stop-color="#BBF7D0"/>
<stop offset="0.421873" stop-color="#7DD3FC"/>
<stop offset="0.82813" stop-color="#C084FC"/>
</linearGradient>
<linearGradient id="paint1_linear_1_2710" x1="15.5098" y1="46" x2="69.0573" y2="31.3025" gradientUnits="userSpaceOnUse">
<stop stop-color="#BBF7D0"/>
<stop offset="0.421873" stop-color="#7DD3FC"/>
<stop offset="0.82813" stop-color="#C084FC"/>
</linearGradient>
<linearGradient id="paint2_linear_1_2710" x1="15.5098" y1="0" x2="69.0573" y2="14.6975" gradientUnits="userSpaceOnUse">
<stop stop-color="#BBF7D0"/>
<stop offset="0.421873" stop-color="#7DD3FC"/>
<stop offset="0.82813" stop-color="#C084FC"/>
</linearGradient>
<linearGradient id="paint3_linear_1_2710" x1="37.4043" y1="14.8388" x2="46.3289" y2="12.3892" gradientUnits="userSpaceOnUse">
<stop stop-color="#BBF7D0"/>
<stop offset="0.421873" stop-color="#7DD3FC"/>
<stop offset="0.82813" stop-color="#C084FC"/>
</linearGradient>
<linearGradient id="paint4_linear_1_2710" x1="31.4121" y1="11.0056" x2="34.9819" y2="10.0258" gradientUnits="userSpaceOnUse">
<stop stop-color="#BBF7D0"/>
<stop offset="0.421873" stop-color="#7DD3FC"/>
<stop offset="0.82813" stop-color="#C084FC"/>
</linearGradient>
<linearGradient id="paint5_linear_1_2710" x1="48.6445" y1="13.8001" x2="50.4294" y2="13.3101" gradientUnits="userSpaceOnUse">
<stop stop-color="#BBF7D0"/>
<stop offset="0.421873" stop-color="#7DD3FC"/>
<stop offset="0.82813" stop-color="#C084FC"/>
</linearGradient>
<linearGradient id="paint6_linear_1_2710" x1="13.4291" y1="37.5668" x2="49.9899" y2="3.35641" gradientUnits="userSpaceOnUse">
<stop stop-color="#BBF7D0"/>
<stop offset="0.421873" stop-color="#7DD3FC"/>
<stop offset="0.82813" stop-color="#C084FC"/>
</linearGradient>
<linearGradient id="paint7_linear_1_2710" x1="44.4854" y1="27.8944" x2="49.1885" y2="26.5696" gradientUnits="userSpaceOnUse">
<stop stop-color="#BBF7D0"/>
<stop offset="0.421873" stop-color="#7DD3FC"/>
<stop offset="0.82813" stop-color="#C084FC"/>
</linearGradient>
</defs>
</svg>
